<svg width="513" height="513" viewBox="0 0 513 513" fill="none" xmlns="http://www.w3.org/2000/svg">
<rect width="513" height="513" rx="115" fill="#878787"/>
<path d="M313.815 267.924C328.889 256.052 339.892 239.772 345.293 221.349C350.693 202.926 350.223 183.276 343.948 165.133C337.673 146.99 325.904 131.256 310.28 120.12C294.656 108.984 275.952 103 256.772 103C237.592 103 218.888 108.984 203.264 120.12C187.64 131.256 175.871 146.99 169.596 165.133C163.321 183.276 162.851 202.926 168.251 221.349C173.652 239.772 184.655 256.052 199.729 267.924C173.899 278.282 151.362 295.464 134.519 317.636C117.677 339.808 107.161 366.139 104.093 393.823C103.871 395.844 104.048 397.889 104.616 399.842C105.183 401.794 106.13 403.616 107.4 405.202C109.966 408.406 113.699 410.458 117.777 410.907C121.855 411.356 125.944 410.165 129.145 407.596C132.345 405.027 134.395 401.291 134.844 397.209C138.22 367.122 152.552 339.335 175.1 319.157C197.649 298.979 226.834 287.825 257.079 287.825C287.325 287.825 316.51 298.979 339.059 319.157C361.607 339.335 375.939 367.122 379.315 397.209C379.733 400.991 381.536 404.484 384.375 407.013C387.215 409.543 390.89 410.93 394.691 410.907H396.382C400.412 410.443 404.096 408.403 406.631 405.232C409.165 402.06 410.345 398.015 409.912 393.977C406.83 366.214 396.257 339.815 379.328 317.609C362.399 295.403 339.752 278.228 313.815 267.924ZM256.772 256.996C244.608 256.996 232.717 253.385 222.603 246.62C212.489 239.856 204.606 230.241 199.951 218.991C195.296 207.742 194.078 195.363 196.451 183.421C198.825 171.478 204.682 160.509 213.283 151.899C221.885 143.289 232.843 137.425 244.773 135.05C256.704 132.674 269.07 133.893 280.308 138.553C291.546 143.213 301.151 151.104 307.909 161.228C314.667 171.352 318.274 183.255 318.274 195.431C318.274 211.759 311.794 227.418 300.261 238.964C288.727 250.51 273.083 256.996 256.772 256.996Z" fill="black"/>
</svg>
