<svg width="513" height="513" viewBox="0 0 513 513" fill="none" xmlns="http://www.w3.org/2000/svg">
<rect width="513" height="513" rx="115" fill="#878787"/>
<path d="M91 374.919H82V383.919V410.554V419.554H91H422H431V410.554V383.919V374.919H422H91Z" fill="#878787" stroke="black" stroke-width="18"/>
<path d="M159.767 382.265L159.645 382.05C160.586 382.191 161.548 382.265 162.527 382.265H350.473C351.432 382.265 352.376 382.194 353.299 382.058L353.182 382.265H368.626H398.83H407.83V373.265V362.456H407.882V353.456C407.882 330.929 395.22 310.873 375.506 300.985L369.817 298.132V262.431C369.817 253.155 362.361 245.622 353.059 245.622H288.513C304.084 231.178 312.688 206.245 313.849 178.663L314.288 168.235L303.909 169.335C290.794 170.725 276.984 166.337 264.63 159.921C252.395 153.568 242.491 145.698 237.521 141.387L231.531 136.189L225.621 141.478L201.986 162.631L198.988 165.314V169.338V171.923C198.988 202.282 207.718 230.048 224.565 245.622H159.941C150.639 245.622 143.183 253.155 143.183 262.431V298.123L137.484 300.99C117.842 310.872 105.118 330.916 105.118 353.456V373.265V382.265H114.118H144.322H159.767Z" fill="#878787" stroke="black" stroke-width="18"/>
<path d="M206.282 171.872C206.282 170.542 206.287 169.469 206.331 168.564L231.565 145.958C232.81 147.043 234.521 148.494 236.564 150.128C241.085 153.744 247.472 158.463 255.009 162.92C268.517 170.908 287.527 179.137 306.55 176.337C305.753 203.193 297.703 225.061 285.795 237.899L271.768 253.02H292.393H333.871H342.871V244.02V179.371C342.871 156.218 333.923 134.518 317.618 118.325C301.255 102.022 279.531 93 256.5 93C208.822 93 170.025 131.721 170.025 179.371V243.968V252.968H179.025H220.556H241.18L227.154 237.847C214.592 224.306 206.282 200.729 206.282 171.872Z" fill="#878787" stroke="black" stroke-width="18"/>
</svg>
