<svg width="513" height="513" viewBox="0 0 513 513" fill="none" xmlns="http://www.w3.org/2000/svg">
<path d="M14.2464 99.7466C14.2464 73.1881 14.2464 59.9143 18.5856 49.4298C21.4511 42.5143 25.6509 36.231 30.945 30.9387C36.2391 25.6464 42.5239 21.4489 49.4404 18.5857C59.9141 14.2466 73.188 14.2466 99.7464 14.2466H135.379C161.937 14.2466 175.211 14.2466 185.685 18.5857C192.601 21.4489 198.886 25.6464 204.18 30.9387C209.474 36.231 213.674 42.5143 216.539 49.4298C220.879 59.9036 220.879 73.1881 220.879 99.7466V135.368C220.879 161.926 220.879 175.211 216.539 185.685C210.751 199.651 199.653 210.745 185.685 216.529C175.211 220.868 161.937 220.868 135.379 220.868H99.7464C73.188 220.868 59.9141 220.868 49.4404 216.529C42.5239 213.666 36.2391 209.468 30.945 204.176C25.6509 198.884 21.4511 192.6 18.5856 185.685C14.2464 175.211 14.2464 161.926 14.2464 135.368V99.7466Z" fill="#878787"/>
<path fill-rule="evenodd" clip-rule="evenodd" d="M99.2441 0H135.881C148.727 0 159.094 -1.07498e-06 167.537 0.577124C176.205 1.16494 183.878 2.41537 191.146 5.41856C208.6 12.6527 222.466 26.5229 229.696 43.9791C232.71 51.2466 233.96 58.9202 234.548 67.5984C235.125 76.0309 235.125 86.3977 235.125 99.2441V135.881C235.125 148.727 235.125 159.094 234.548 167.537C233.96 176.205 232.71 183.878 229.696 191.146C222.465 208.599 208.599 222.465 191.146 229.696C183.878 232.71 176.205 233.96 167.527 234.548C159.094 235.125 148.727 235.125 135.881 235.125H99.2441C86.3977 235.125 76.0309 235.125 67.5878 234.548C58.9202 233.96 51.2466 232.71 43.9791 229.696C26.5229 222.466 12.6527 208.6 5.41856 191.146C2.41537 183.878 1.16494 176.205 0.577124 167.527C-1.07498e-06 159.105 0 148.738 0 135.892V99.2548C0 86.4084 -1.07498e-06 76.0416 0.577124 67.5984C1.16494 58.9309 2.41537 51.2573 5.41856 43.9898C12.6503 26.5316 26.5209 12.661 43.9791 5.42925C51.2466 2.42607 58.9202 1.17563 67.5984 0.587816C76.0202 3.26475e-06 86.3977 0 99.2441 0ZM69.5329 29.0059C62.3081 29.4975 58.0972 30.4273 54.891 31.7526C49.7037 33.901 44.9904 37.0501 41.0203 41.0203C37.0501 44.9904 33.901 49.7037 31.7526 54.891C30.4273 58.0972 29.5082 62.3081 29.0059 69.5329C28.5036 76.8859 28.5036 86.2802 28.5036 99.7464V135.379C28.5036 148.845 28.5036 158.25 29.0059 165.592C29.4975 172.817 30.4273 177.028 31.7526 180.234C33.901 185.421 37.0501 190.135 41.0203 194.105C44.9904 198.075 49.7037 201.224 54.891 203.372C58.0972 204.698 62.3081 205.617 69.5329 206.119C76.8859 206.621 86.2802 206.621 99.7464 206.621H135.379C148.845 206.621 158.25 206.621 165.592 206.119C172.817 205.627 177.028 204.698 180.234 203.372C185.421 201.224 190.135 198.075 194.105 194.105C198.075 190.135 201.224 185.421 203.372 180.234C204.698 177.028 205.617 172.817 206.119 165.592C206.621 158.239 206.621 148.845 206.621 135.379V99.7464C206.621 86.2802 206.621 76.8752 206.119 69.5329C205.627 62.3081 204.698 58.0972 203.372 54.891C201.224 49.7037 198.075 44.9904 194.105 41.0203C190.135 37.0501 185.421 33.901 180.234 31.7526C177.028 30.4273 172.817 29.5082 165.592 29.0059C158.239 28.5036 148.845 28.5036 135.379 28.5036H99.7464C86.2802 28.5036 76.8752 28.5036 69.5329 29.0059Z" fill="#878787"/>
<path d="M14.2464 377.622C14.2464 351.063 14.2464 337.789 18.5856 327.305C21.4511 320.389 25.6509 314.106 30.945 308.814C36.2391 303.521 42.5239 299.324 49.4404 296.461C59.9141 292.122 73.188 292.122 99.7464 292.122H135.379C161.937 292.122 175.211 292.122 185.685 296.461C192.601 299.324 198.886 303.521 204.18 308.814C209.474 314.106 213.674 320.389 216.539 327.305C220.879 337.779 220.879 351.063 220.879 377.622V413.243C220.879 439.801 220.879 453.086 216.539 463.56C210.751 477.526 199.653 488.62 185.685 494.404C175.211 498.743 161.937 498.743 135.379 498.743H99.7464C73.188 498.743 59.9141 498.743 49.4404 494.404C42.5239 491.541 36.2391 487.343 30.945 482.051C25.6509 476.759 21.4511 470.475 18.5856 463.56C14.2464 453.086 14.2464 439.801 14.2464 413.243V377.622Z" fill="#D0D2E0"/>
<path fill-rule="evenodd" clip-rule="evenodd" d="M99.2441 277.875H135.881C148.727 277.875 159.094 277.875 167.537 278.452C176.205 279.04 183.878 280.29 191.146 283.294C208.601 290.527 222.467 304.397 229.696 321.854C232.71 329.122 233.96 336.795 234.548 345.474C235.125 353.906 235.125 364.273 235.125 377.119V413.756C235.125 426.602 235.125 436.969 234.548 445.412C233.96 454.08 232.71 461.754 229.696 469.021C222.467 486.478 208.601 500.348 191.146 507.582C183.878 510.585 176.205 511.835 167.527 512.423C159.094 513 148.727 513 135.881 513H99.2441C86.3977 513 76.0309 513 67.5878 512.423C58.9202 511.835 51.2466 510.585 43.9791 507.582C26.5209 500.35 12.6503 486.479 5.41856 469.021C2.41537 461.754 1.16494 454.08 0.577124 445.402C-1.07498e-06 436.98 0 426.613 0 413.767V377.13C0 364.284 -1.07498e-06 353.917 0.577124 345.474C1.16494 336.806 2.41537 329.132 5.41856 321.865C12.6503 304.407 26.5209 290.536 43.9791 283.304C51.2466 280.301 58.9202 279.051 67.5984 278.463C76.0202 277.875 86.3977 277.875 99.2441 277.875ZM69.5329 306.881C62.3081 307.373 58.0972 308.302 54.891 309.628C49.7037 311.776 44.9904 314.925 41.0203 318.895C37.0501 322.866 33.901 327.579 31.7526 332.766C30.4273 335.972 29.5082 340.183 29.0059 347.408C28.5036 354.761 28.5036 364.155 28.5036 377.622V413.254C28.5036 426.72 28.5036 436.125 29.0059 443.467C29.4975 450.692 30.4273 454.903 31.7526 458.109C33.901 463.296 37.0501 468.01 41.0203 471.98C44.9904 475.95 49.7037 479.099 54.891 481.248C58.0972 482.573 62.3081 483.492 69.5329 483.994C76.8859 484.497 86.2802 484.497 99.7464 484.497H135.379C148.845 484.497 158.25 484.497 165.592 483.994C172.817 483.503 177.028 482.573 180.234 481.248C185.421 479.099 190.135 475.95 194.105 471.98C198.075 468.01 201.224 463.296 203.372 458.109C204.698 454.903 205.617 450.692 206.119 443.467C206.621 436.114 206.621 426.72 206.621 413.254V377.622C206.621 364.155 206.621 354.75 206.119 347.408C205.627 340.183 204.698 335.972 203.372 332.766C201.224 327.579 198.075 322.866 194.105 318.895C190.135 314.925 185.421 311.776 180.234 309.628C177.028 308.302 172.817 307.383 165.592 306.881C158.239 306.379 148.845 306.379 135.379 306.379H99.7464C86.2802 306.379 76.8752 306.379 69.5329 306.881Z" fill="#D0D2E0"/>
<path d="M292.121 99.7466C292.121 73.1881 292.121 59.9143 296.461 49.4298C299.326 42.5143 303.526 36.231 308.82 30.9387C314.114 25.6464 320.399 21.4489 327.315 18.5857C337.789 14.2466 351.063 14.2466 377.621 14.2466H413.254C439.812 14.2466 453.086 14.2466 463.56 18.5857C470.476 21.4489 476.761 25.6464 482.055 30.9387C487.349 36.231 491.549 42.5143 494.414 49.4298C498.754 59.9036 498.754 73.1881 498.754 99.7466V135.368C498.754 161.926 498.754 175.211 494.414 185.685C488.626 199.651 477.528 210.745 463.56 216.529C453.086 220.868 439.812 220.868 413.254 220.868H377.621C351.063 220.868 337.789 220.868 327.315 216.529C313.347 210.745 302.249 199.651 296.461 185.685C292.121 175.211 292.121 161.926 292.121 135.368V99.7466Z" fill="#D0D2E0"/>
<path fill-rule="evenodd" clip-rule="evenodd" d="M377.119 0H413.756C426.602 0 436.969 -1.07498e-06 445.412 0.577124C454.08 1.16494 461.753 2.41537 469.021 5.41856C486.479 12.6503 500.35 26.5209 507.581 43.9791C510.585 51.2466 511.835 58.9202 512.423 67.5984C513 76.0309 513 86.3977 513 99.2441V135.881C513 148.727 513 159.094 512.423 167.537C511.835 176.205 510.585 183.878 507.581 191.146C500.348 208.601 486.478 222.467 469.021 229.696C461.753 232.71 454.08 233.96 445.402 234.548C436.969 235.125 426.602 235.125 413.756 235.125H377.119C364.273 235.125 353.906 235.125 345.463 234.548C336.795 233.96 329.122 232.71 321.854 229.696C304.397 222.467 290.527 208.601 283.294 191.146C280.29 183.878 279.04 176.205 278.452 167.527C277.875 159.105 277.875 148.738 277.875 135.892V99.2548C277.875 86.4084 277.875 76.0416 278.452 67.5984C279.04 58.9309 280.29 51.2573 283.294 43.9898C290.525 26.5316 304.396 12.661 321.854 5.42925C329.122 2.42607 336.795 1.17563 345.473 0.587816C353.895 3.26475e-06 364.273 0 377.119 0ZM347.408 29.0059C340.183 29.4975 335.972 30.4273 332.766 31.7526C327.579 33.901 322.865 37.0501 318.895 41.0203C314.925 44.9904 311.776 49.7037 309.628 54.891C308.302 58.0972 307.383 62.3081 306.881 69.5329C306.379 76.8859 306.379 86.2802 306.379 99.7464V135.379C306.379 148.845 306.379 158.25 306.881 165.592C307.373 172.817 308.302 177.028 309.628 180.234C311.776 185.421 314.925 190.135 318.895 194.105C322.865 198.075 327.579 201.224 332.766 203.372C335.972 204.698 340.183 205.617 347.408 206.119C354.761 206.621 364.155 206.621 377.621 206.621H413.254C426.72 206.621 436.125 206.621 443.467 206.119C450.692 205.627 454.903 204.698 458.109 203.372C463.296 201.224 468.01 198.075 471.98 194.105C475.95 190.135 479.099 185.421 481.247 180.234C482.573 177.028 483.492 172.817 483.994 165.592C484.496 158.239 484.496 148.845 484.496 135.379V99.7464C484.496 86.2802 484.496 76.8752 483.994 69.5329C483.502 62.3081 482.573 58.0972 481.247 54.891C479.099 49.7037 475.95 44.9904 471.98 41.0203C468.01 37.0501 463.296 33.901 458.109 31.7526C454.903 30.4273 450.692 29.5082 443.467 29.0059C436.114 28.5036 426.72 28.5036 413.254 28.5036H377.621C364.155 28.5036 354.75 28.5036 347.408 29.0059Z" fill="#D0D2E0"/>
<path d="M292.121 377.622C292.121 351.063 292.121 337.789 296.461 327.305C299.326 320.389 303.526 314.106 308.82 308.814C314.114 303.521 320.399 299.324 327.315 296.461C337.789 292.122 351.063 292.122 377.621 292.122H413.254C439.812 292.122 453.086 292.122 463.56 296.461C470.476 299.324 476.761 303.521 482.055 308.814C487.349 314.106 491.549 320.389 494.414 327.305C498.754 337.779 498.754 351.063 498.754 377.622V413.243C498.754 439.801 498.754 453.086 494.414 463.56C488.626 477.526 477.528 488.62 463.56 494.404C453.086 498.743 439.812 498.743 413.254 498.743H377.621C351.063 498.743 337.789 498.743 327.315 494.404C313.347 488.62 302.249 477.526 296.461 463.56C292.121 453.086 292.121 439.801 292.121 413.243V377.622Z" fill="#878787"/>
<path fill-rule="evenodd" clip-rule="evenodd" d="M377.119 277.875H413.756C426.602 277.875 436.969 277.875 445.412 278.452C454.08 279.04 461.753 280.29 469.021 283.294C477.666 286.874 485.52 292.122 492.137 298.738C498.753 305.355 504.001 313.209 507.581 321.854C510.585 329.122 511.835 336.795 512.423 345.474C513 353.906 513 364.273 513 377.119V413.756C513 426.602 513 436.969 512.423 445.412C511.835 454.08 510.585 461.754 507.581 469.021C504.001 477.666 498.753 485.521 492.137 492.137C485.52 498.753 477.666 504.001 469.021 507.582C461.753 510.585 454.08 511.835 445.402 512.423C436.969 513 426.602 513 413.756 513H377.119C364.273 513 353.906 513 345.463 512.423C336.795 511.835 329.122 510.585 321.854 507.582C313.209 504.001 305.355 498.753 298.738 492.137C292.122 485.521 286.874 477.666 283.294 469.021C280.29 461.754 279.04 454.08 278.452 445.402C277.875 436.98 277.875 426.613 277.875 413.767V377.13C277.875 364.284 277.875 353.917 278.452 345.474C279.04 336.806 280.29 329.132 283.294 321.865C286.874 313.22 292.122 305.365 298.738 298.749C305.355 292.133 313.209 286.885 321.854 283.304C329.122 280.301 336.795 279.051 345.473 278.463C353.895 277.875 364.273 277.875 377.119 277.875ZM347.408 306.881C340.183 307.373 335.972 308.302 332.766 309.628C327.579 311.776 322.865 314.925 318.895 318.895C314.925 322.866 311.776 327.579 309.628 332.766C308.302 335.972 307.383 340.183 306.881 347.408C306.379 354.761 306.379 364.155 306.379 377.622V413.254C306.379 426.72 306.379 436.125 306.881 443.467C307.373 450.692 308.302 454.903 309.628 458.109C311.776 463.296 314.925 468.01 318.895 471.98C322.865 475.95 327.579 479.099 332.766 481.248C335.972 482.573 340.183 483.492 347.408 483.994C354.761 484.497 364.155 484.497 377.621 484.497H413.254C426.72 484.497 436.125 484.497 443.467 483.994C450.692 483.503 454.903 482.573 458.109 481.248C463.296 479.099 468.01 475.95 471.98 471.98C475.95 468.01 479.099 463.296 481.247 458.109C482.573 454.903 483.492 450.692 483.994 443.467C484.496 436.114 484.496 426.72 484.496 413.254V377.622C484.496 364.155 484.496 354.75 483.994 347.408C483.502 340.183 482.573 335.972 481.247 332.766C479.099 327.579 475.95 322.866 471.98 318.895C468.01 314.925 463.296 311.776 458.109 309.628C454.903 308.302 450.692 307.383 443.467 306.881C436.114 306.379 426.72 306.379 413.254 306.379H377.621C364.155 306.379 354.75 306.379 347.408 306.881Z" fill="#878787"/>
</svg>
