<svg width="513" height="513" viewBox="0 0 513 513" fill="none" xmlns="http://www.w3.org/2000/svg">
<rect width="513" height="513" rx="115" fill="#878787"/>
<path d="M377.953 133.516C377.443 133.006 376.933 133.006 376.933 132.496C345.806 101.88 302.434 83 255.49 83C208.035 83 165.173 101.88 134.047 133.006C133.537 133.516 133.537 133.516 133.026 133.516C133.026 133.516 132.516 134.026 132.516 134.537C101.39 166.173 82 209.035 82 257C82 352.93 160.07 431 256 431C351.93 431 430 352.93 430 257C430 209.545 410.61 166.173 379.484 134.537C378.463 134.537 377.953 134.026 377.953 133.516ZM297.331 244.754C294.78 236.079 289.677 228.936 283.044 223.323L316.211 147.293C318.762 141.17 316.211 134.026 310.088 130.965C303.965 128.413 296.821 130.965 293.76 137.088L260.592 213.117C258.551 213.117 257.021 212.607 254.979 212.607C235.079 212.607 218.24 225.874 212.628 244.243H105.982C108.534 212.097 121.29 183.012 141.191 159.54L164.152 182.501C166.704 185.053 169.765 186.073 172.827 186.073C175.889 186.073 178.95 185.053 181.501 182.501C186.094 177.909 186.094 169.745 181.501 165.153L158.54 142.191C181.501 122.801 210.586 110.044 242.733 107.493V140.15C242.733 146.783 248.346 152.396 254.979 152.396C261.613 152.396 267.226 146.783 267.226 140.15V107.493C298.862 110.044 327.947 122.801 351.419 142.191L328.457 165.153C323.865 169.745 323.865 177.909 328.457 182.501C331.009 185.053 334.07 186.073 337.132 186.073C340.194 186.073 343.255 185.053 345.806 182.501L368.768 159.54C388.669 182.501 401.425 212.097 403.976 244.243H297.331V244.754ZM274.369 257C274.369 267.716 265.695 276.39 254.979 276.39C244.264 276.39 235.589 267.716 235.589 257C235.589 246.284 244.264 237.61 254.979 237.61C265.695 237.61 274.369 246.284 274.369 257ZM254.979 406.507C176.909 406.507 112.616 345.786 105.982 269.246H212.628C217.73 287.616 235.079 300.883 254.979 300.883C274.88 300.883 292.229 287.616 297.331 269.246H403.976C397.343 345.786 333.05 406.507 254.979 406.507Z" fill="black"/>
</svg>
