<svg width="23" height="23" viewBox="0 0 23 23" fill="none" xmlns="http://www.w3.org/2000/svg">
<path d="M1.5 4.63821H4.92153C5.06911 5.32004 5.43859 5.93503 5.97378 6.38538C6.54129 6.86291 7.25876 7.12473 8 7.12473C8.74124 7.12473 9.45872 6.86291 10.0262 6.38538C10.5614 5.93503 10.9309 5.32004 11.0785 4.63821H21.5C21.6725 4.63821 21.8378 4.56957 21.9597 4.44749C22.0816 4.32541 22.15 4.1599 22.15 3.98736C22.15 3.81483 22.0816 3.64931 21.9597 3.52724C21.8378 3.40515 21.6725 3.33652 21.5 3.33652H11.0785C10.9309 2.65468 10.5614 2.0397 10.0262 1.58935C9.45872 1.11182 8.74124 0.85 8 0.85C7.25876 0.85 6.54129 1.11182 5.97378 1.58935C5.43859 2.0397 5.06911 2.65468 4.92153 3.33652H1.5C1.32753 3.33652 1.16217 3.40515 1.04029 3.52724C0.918421 3.64931 0.85 3.81483 0.85 3.98736C0.85 4.1599 0.918421 4.32541 1.04029 4.44749C1.16217 4.56957 1.32753 4.63821 1.5 4.63821ZM8 2.13399C8.36584 2.13399 8.72348 2.24266 9.02771 2.44628C9.33193 2.6499 9.56909 2.93934 9.70914 3.27803C9.8492 3.61672 9.88585 3.98942 9.81444 4.34898C9.74304 4.70855 9.5668 5.0388 9.30806 5.29798C9.04931 5.55716 8.71969 5.73364 8.36087 5.80513C8.00205 5.87662 7.63013 5.83993 7.29212 5.69969C6.9541 5.55944 6.66516 5.32193 6.46185 5.01714C6.25853 4.71234 6.15 4.35398 6.15 3.98736C6.15 3.49574 6.34497 3.0243 6.69194 2.67674C7.0389 2.3292 7.50943 2.13399 8 2.13399ZM21.5 10.8492H18.0785C17.9309 10.1673 17.5614 9.55234 17.0262 9.10199C16.4587 8.62446 15.7412 8.36264 15 8.36264C14.2588 8.36264 13.5413 8.62446 12.9738 9.10199C12.4386 9.55234 12.0691 10.1673 11.9215 10.8492H1.5C1.32753 10.8492 1.16217 10.9178 1.04029 11.0399C0.918421 11.162 0.85 11.3275 0.85 11.5C0.85 11.6725 0.918421 11.8381 1.04029 11.9601C1.16217 12.0822 1.32753 12.1508 1.5 12.1508H11.9215C12.0691 12.8327 12.4386 13.4477 12.9738 13.898C13.5413 14.3755 14.2588 14.6374 15 14.6374C15.7412 14.6374 16.4587 14.3755 17.0262 13.898C17.5614 13.4477 17.9309 12.8327 18.0785 12.1508H21.5C21.6725 12.1508 21.8378 12.0822 21.9597 11.9601C22.0816 11.8381 22.15 11.6725 22.15 11.5C22.15 11.3275 22.0816 11.162 21.9597 11.0399C21.8378 10.9178 21.6725 10.8492 21.5 10.8492ZM15 13.3534C14.6342 13.3534 14.2765 13.2447 13.9723 13.0411C13.6681 12.8375 13.4309 12.548 13.2909 12.2093C13.1508 11.8706 13.1142 11.4979 13.1856 11.1384C13.257 10.7788 13.4332 10.4486 13.6919 10.1894C13.9507 9.9302 14.2803 9.75373 14.6391 9.68223C14.9979 9.61074 15.3699 9.64743 15.7079 9.78768C16.0459 9.92792 16.3348 10.1654 16.5382 10.4702C16.7415 10.775 16.85 11.1334 16.85 11.5C16.85 11.9916 16.655 12.4631 16.3081 12.8106C15.9611 13.1582 15.4906 13.3534 15 13.3534ZM21.5 18.3618H11.0785C10.9309 17.68 10.5614 17.065 10.0262 16.6146C9.45872 16.1371 8.74124 15.8753 8 15.8753C7.25876 15.8753 6.54129 16.1371 5.97378 16.6146C5.43859 17.065 5.06911 17.68 4.92153 18.3618H1.5C1.32753 18.3618 1.16217 18.4304 1.04029 18.5525C0.91842 18.6746 0.85 18.8401 0.85 19.0126C0.85 19.1852 0.91842 19.3507 1.04029 19.4728C1.16217 19.5949 1.32753 19.6635 1.5 19.6635H4.92153C5.06911 20.3453 5.43859 20.9603 5.97378 21.4107C6.54129 21.8882 7.25876 22.15 8 22.15C8.74124 22.15 9.45871 21.8882 10.0262 21.4107C10.5614 20.9603 10.9309 20.3453 11.0785 19.6635H21.5C21.6725 19.6635 21.8378 19.5949 21.9597 19.4728C22.0816 19.3507 22.15 19.1852 22.15 19.0126C22.15 18.8401 22.0816 18.6746 21.9597 18.5525C21.8378 18.4304 21.6725 18.3618 21.5 18.3618ZM8 20.866C7.63416 20.866 7.27652 20.7573 6.97229 20.5537C6.66806 20.3501 6.43091 20.0607 6.29086 19.722C6.1508 19.3833 6.11415 19.0106 6.18556 18.651C6.25696 18.2915 6.4332 17.9612 6.69194 17.702C6.95068 17.4428 7.28031 17.2664 7.63913 17.1949C7.99795 17.1234 8.36987 17.1601 8.70788 17.3003C9.0459 17.4406 9.33484 17.6781 9.53815 17.9829C9.74147 18.2877 9.85 18.646 9.85 19.0126C9.85 19.5043 9.65503 19.9757 9.30806 20.3233C8.9611 20.6708 8.49057 20.866 8 20.866Z" fill="#676767" stroke="#676767" stroke-width="0.3"/>
</svg>
