<svg width="32" height="34" viewBox="0 0 32 34" fill="none" xmlns="http://www.w3.org/2000/svg">
<path d="M0 4.625C0 2.34683 1.79086 0.5 4 0.5C6.20914 0.5 8 2.34683 8 4.625C8 6.90317 6.20914 8.75 4 8.75C1.79086 8.75 0 6.90317 0 4.625Z" fill="#676767"/>
<path d="M0 17C0 14.7218 1.79086 12.875 4 12.875C6.20914 12.875 8 14.7218 8 17C8 19.2782 6.20914 21.125 4 21.125C1.79086 21.125 0 19.2782 0 17Z" fill="#676767"/>
<path d="M0 29.375C0 27.0968 1.79086 25.25 4 25.25C6.20914 25.25 8 27.0968 8 29.375C8 31.6532 6.20914 33.5 4 33.5C1.79086 33.5 0 31.6532 0 29.375Z" fill="#676767"/>
<path d="M12 4.625C12 2.34683 13.7909 0.5 16 0.5C18.2091 0.5 20 2.34683 20 4.625C20 6.90317 18.2091 8.75 16 8.75C13.7909 8.75 12 6.90317 12 4.625Z" fill="#676767"/>
<path d="M12 17C12 14.7218 13.7909 12.875 16 12.875C18.2091 12.875 20 14.7218 20 17C20 19.2782 18.2091 21.125 16 21.125C13.7909 21.125 12 19.2782 12 17Z" fill="#676767"/>
<path d="M12 29.375C12 27.0968 13.7909 25.25 16 25.25C18.2091 25.25 20 27.0968 20 29.375C20 31.6532 18.2091 33.5 16 33.5C13.7909 33.5 12 31.6532 12 29.375Z" fill="#676767"/>
<path d="M24 4.625C24 2.34683 25.7909 0.5 28 0.5C30.2091 0.5 32 2.34683 32 4.625C32 6.90317 30.2091 8.75 28 8.75C25.7909 8.75 24 6.90317 24 4.625Z" fill="#676767"/>
<path d="M24 17C24 14.7218 25.7909 12.875 28 12.875C30.2091 12.875 32 14.7218 32 17C32 19.2782 30.2091 21.125 28 21.125C25.7909 21.125 24 19.2782 24 17Z" fill="#676767"/>
<path d="M24 29.375C24 27.0968 25.7909 25.25 28 25.25C30.2091 25.25 32 27.0968 32 29.375C32 31.6532 30.2091 33.5 28 33.5C25.7909 33.5 24 31.6532 24 29.375Z" fill="#676767"/>
</svg>
