<svg width="370" height="370" viewBox="0 0 370 370" fill="none" xmlns="http://www.w3.org/2000/svg">
<path d="M124 324.3H27.4V156.025C27.4 155.886 27.4553 155.752 27.5538 155.654C27.6522 155.555 27.7858 155.5 27.925 155.5H32.5H33.5V154.5V142.3V141.3H32.5L27.925 141.3L27.9238 141.3C24.0202 141.305 20.2778 142.857 17.5175 145.618C14.7573 148.378 13.2045 152.12 13.2 156.024V156.025V324.3H8.1C6.21697 324.3 4.41105 325.048 3.07954 326.38C1.74803 327.711 1 329.517 1 331.4L0.999999 346.65L1 346.651C1.00676 352.576 3.36354 358.257 7.5533 362.447C11.7431 366.636 17.4236 368.993 23.3489 369H23.35H307H308V368V355.8V354.8H307H23.3511C21.19 354.798 19.1181 353.938 17.59 352.41C16.0621 350.882 15.2026 348.811 15.2 346.65C15.2 346.649 15.2 346.649 15.2 346.649L15.2 338.5H122.324L133.024 343.85C134.01 344.343 135.098 344.6 136.2 344.6H233.8C234.902 344.6 235.99 344.343 236.976 343.85L247.676 338.5H354.8V346.649C354.798 348.81 353.938 350.882 352.41 352.41C350.882 353.938 348.81 354.798 346.649 354.8H319.2H318.2V355.8V368V369H319.2H346.65H346.651C352.576 368.993 358.257 366.636 362.447 362.447C366.636 358.257 368.993 352.576 369 346.651V346.65V331.4C369 329.517 368.252 327.711 366.92 326.38C365.589 325.048 363.783 324.3 361.9 324.3H356.8V156.025V156.024C356.795 152.12 355.243 148.378 352.482 145.618L351.778 146.322L352.482 145.618C349.722 142.857 345.98 141.305 342.076 141.3H342.075H337.5H336.5V142.3V154.5V155.5H337.5H342.075C342.214 155.5 342.348 155.555 342.446 155.654C342.545 155.752 342.6 155.886 342.6 156.025V324.3H246C244.898 324.3 243.81 324.557 242.825 325.05C242.824 325.05 242.824 325.05 242.824 325.05L232.124 330.4H137.876L127.176 325.05C127.176 325.05 127.176 325.05 127.175 325.05C126.19 324.557 125.102 324.3 124 324.3Z" fill="black" stroke="black" stroke-width="2"/>
<path d="M98.6 159.441L98.5206 159.521C97.2557 160.786 95.5598 161.526 93.7722 161.595C91.9846 161.664 90.237 161.055 88.8789 159.891L46.1789 123.291C46.1789 123.291 46.1789 123.291 46.1789 123.291C44.8812 122.179 44.0281 120.636 43.7764 118.945C43.5247 117.255 43.8912 115.53 44.8086 114.088L44.8087 114.088L64.2181 83.5882L64.755 82.7446L65.5986 83.2814L75.8924 89.8312L76.7361 90.3681L76.1992 91.2118L60.0957 116.516L93.129 144.83L93.9617 143.997L111.812 114.247L112.326 113.39L113.184 113.904L123.645 120.181L124.503 120.695L123.988 121.553L112.584 140.56C112.727 141.128 112.8 141.713 112.8 142.3V265.785L162.108 287.7H177.9V252.1V251.1H178.9H191.1H192.1V252.1V287.7H207.891L257.2 265.785V142.301V142.3H258.2C258.2 141.661 258.3 141.026 258.497 140.418L98.6 159.441ZM98.6 159.441V270.4C98.5999 271.773 98.9982 273.117 99.7466 274.269C100.495 275.421 101.561 276.331 102.817 276.888L157.716 301.288L157.717 301.289C158.625 301.692 159.607 301.9 160.6 301.9H209.4C210.393 301.9 211.375 301.692 212.283 301.289L212.283 301.288L267.183 276.888C268.439 276.331 269.505 275.421 270.253 274.269C271.002 273.117 271.4 271.773 271.4 270.4V159.441L271.479 159.521C272.744 160.786 274.44 161.526 276.228 161.595C278.015 161.664 279.763 161.055 281.121 159.891L323.821 123.291C325.119 122.178 325.972 120.635 326.223 118.945C326.475 117.255 326.108 115.53 325.19 114.088L282.491 46.9882L282.49 46.988C281.723 45.7825 280.609 44.8367 279.296 44.2742C279.296 44.2741 279.296 44.2741 279.295 44.274L246.016 30.0137C246.695 28.8636 247.041 27.5366 246.999 26.1834C246.943 24.3775 246.2 22.6608 244.923 21.3832L226.623 3.08324L226.622 3.08279C225.29 1.75208 223.485 1.00322 221.602 1H221.6L148.4 1L148.399 1C146.517 1.00164 144.713 1.74874 143.38 3.07779L143.379 3.07867L125.08 21.3781L98.6 159.441ZM246.012 121.553L257.416 140.56L125.079 21.3787C123.8 22.6561 123.057 24.3734 123 26.1804C122.958 27.5347 123.304 28.8629 123.983 30.0138L90.7038 44.274C90.7037 44.2741 90.7036 44.2741 90.7035 44.2742C89.3897 44.8367 88.2763 45.7825 87.5088 46.988L87.5087 46.9882L71.9819 71.3882L71.445 72.2319L72.2887 72.7688L82.5825 79.3186L83.4261 79.8554L83.963 79.0118L98.3129 56.4622L135.612 40.4765L168.179 68.3906C169.537 69.555 171.285 70.1637 173.072 70.0951C174.86 70.0265 176.556 69.2856 177.821 68.0205L185 60.8404L192.179 68.0205C193.444 69.2856 195.14 70.0265 196.928 70.0951C198.715 70.1637 200.463 69.555 201.821 68.3906L234.388 40.4765L271.687 56.4622L309.904 116.516L276.871 144.827L276.038 143.994L258.188 114.247L257.674 113.39L256.816 113.904L246.355 120.181L245.497 120.695L246.012 121.553ZM172.429 53.3269L140.542 25.9988L147.999 18.5423L175.327 50.4289L172.429 53.3269ZM185 39.89L163.837 15.2H206.163L185 39.89ZM229.461 25.9989L197.571 53.3318L194.673 50.4294L222.004 18.5423L229.461 25.9989Z" fill="black" stroke="black" stroke-width="2"/>
<path d="M192.1 75.2V74.2H191.1H178.9H177.9V75.2V87.4V88.4H178.9H191.1H192.1V87.4V75.2Z" fill="black" stroke="black" stroke-width="2"/>
<path d="M192.1 111.8V110.8H191.1H178.9H177.9V111.8V124V125H178.9H191.1H192.1V124V111.8Z" fill="black" stroke="black" stroke-width="2"/>
<path d="M192.1 148.4V147.4H191.1H178.9H177.9V148.4V160.6V161.6H178.9H191.1H192.1V160.6V148.4Z" fill="black" stroke="black" stroke-width="2"/>
<path d="M192.1 185V184H191.1H178.9H177.9V185V197.2V198.2H178.9H191.1H192.1V197.2V185Z" fill="black" stroke="black" stroke-width="2"/>
<path d="M192.1 221.6V220.6H191.1H178.9H177.9V221.6V233.8V234.8H178.9H191.1H192.1V233.8V221.6Z" fill="black" stroke="black" stroke-width="2"/>
<path d="M234.8 111.8V110.8H233.8H209.4H208.4V111.8V124V125H209.4H233.8H234.8V124V111.8Z" fill="black" stroke="black" stroke-width="2"/>
<path d="M298.406 251.021L299.113 251.728L299.82 251.021L324.22 226.621C324.88 225.961 325.403 225.179 325.76 224.317C326.116 223.456 326.3 222.532 326.3 221.6C326.3 220.668 326.116 219.744 325.76 218.883C325.403 218.021 324.88 217.239 324.22 216.579L299.82 192.179L299.113 191.472L298.406 192.179L289.779 200.806L289.072 201.514L289.779 202.221L309.159 221.6L289.779 240.979L289.072 241.687L289.779 242.394L298.406 251.021ZM71.5936 192.179L70.8865 191.472L70.1794 192.179L45.7794 216.579C45.7794 216.579 45.7794 216.579 45.7794 216.579C45.12 217.239 44.597 218.021 44.2402 218.883C43.8834 219.744 43.6997 220.668 43.6997 221.6C43.6997 222.532 43.8834 223.456 44.2402 224.317C44.597 225.179 45.12 225.961 45.7794 226.621L70.1794 251.021L70.8865 251.728L71.5936 251.021L80.2205 242.394L80.9276 241.687L80.2205 240.979L60.8411 221.6L80.2205 202.221L80.9276 201.514L80.2205 200.806L71.5936 192.179Z" fill="black" stroke="black" stroke-width="2"/>
</svg>
