<svg width="513" height="513" viewBox="0 0 513 513" fill="none" xmlns="http://www.w3.org/2000/svg">
<rect width="513" height="513" rx="115" fill="#878787"/>
<path d="M195 396.3H98.4V228.025C98.4 227.886 98.4553 227.752 98.5538 227.654C98.6522 227.555 98.7858 227.5 98.925 227.5H103.5H104.5V226.5V214.3V213.3H103.5L98.925 213.3L98.9238 213.3C95.0202 213.305 91.2778 214.857 88.5175 217.618C85.7573 220.378 84.2045 224.12 84.2 228.024V228.025V396.3H79.1C77.217 396.3 75.4111 397.048 74.0795 398.38C72.748 399.711 72 401.517 72 403.4L72 418.65L72 418.651C72.0068 424.576 74.3635 430.257 78.5533 434.447C82.7431 438.636 88.4236 440.993 94.3489 441H94.35H378H379V440V427.8V426.8H378H94.3511C92.19 426.798 90.1181 425.938 88.59 424.41C87.0621 422.882 86.2026 420.811 86.2 418.65C86.2 418.649 86.2 418.649 86.2 418.649L86.2 410.5H193.324L204.024 415.85C205.01 416.343 206.098 416.6 207.2 416.6H304.8C305.902 416.6 306.99 416.343 307.976 415.85L318.676 410.5H425.8V418.649C425.798 420.81 424.938 422.882 423.41 424.41C421.882 425.938 419.81 426.798 417.649 426.8H390.2H389.2V427.8V440V441H390.2H417.65H417.651C423.576 440.993 429.257 438.636 433.447 434.447C437.636 430.257 439.993 424.576 440 418.651V418.65V403.4C440 401.517 439.252 399.711 437.92 398.38C436.589 397.048 434.783 396.3 432.9 396.3H427.8V228.025V228.024C427.795 224.12 426.243 220.378 423.482 217.618L422.778 218.322L423.482 217.618C420.722 214.857 416.98 213.305 413.076 213.3H413.075H408.5H407.5V214.3V226.5V227.5H408.5H413.075C413.214 227.5 413.348 227.555 413.446 227.654C413.545 227.752 413.6 227.886 413.6 228.025V396.3H317C315.898 396.3 314.81 396.557 313.825 397.05C313.824 397.05 313.824 397.05 313.824 397.05L303.124 402.4H208.876L198.176 397.05C198.176 397.05 198.176 397.05 198.175 397.05C197.19 396.557 196.102 396.3 195 396.3Z" fill="black" stroke="black" stroke-width="2"/>
<path d="M169.6 231.441L169.521 231.521C168.256 232.786 166.56 233.526 164.772 233.595C162.985 233.664 161.237 233.055 159.879 231.891L117.179 195.291C117.179 195.291 117.179 195.291 117.179 195.291C115.881 194.179 115.028 192.636 114.776 190.945C114.525 189.255 114.891 187.53 115.809 186.088L115.809 186.088L135.218 155.588L135.755 154.745L136.599 155.281L146.892 161.831L147.736 162.368L147.199 163.212L131.096 188.516L164.129 216.83L164.962 215.997L182.812 186.247L183.326 185.39L184.184 185.904L194.645 192.181L195.503 192.695L194.988 193.553L183.584 212.56C183.727 213.128 183.8 213.713 183.8 214.3V337.785L233.108 359.7H248.9V324.1V323.1H249.9H262.1H263.1V324.1V359.7H278.891L328.2 337.785V214.301V214.3H329.2C329.2 213.661 329.3 213.026 329.497 212.418L169.6 231.441ZM169.6 231.441V342.4C169.6 343.773 169.998 345.117 170.747 346.269C171.495 347.421 172.561 348.331 173.817 348.888L228.716 373.288L228.717 373.289C229.625 373.692 230.607 373.9 231.6 373.9H280.4C281.393 373.9 282.375 373.692 283.283 373.289L283.283 373.288L338.183 348.888C339.439 348.331 340.505 347.421 341.253 346.269C342.002 345.117 342.4 343.773 342.4 342.4V231.441L342.479 231.521C343.744 232.786 345.44 233.526 347.228 233.595C349.015 233.664 350.763 233.055 352.121 231.891L394.821 195.291C396.119 194.178 396.972 192.635 397.223 190.945C397.475 189.255 397.108 187.53 396.19 186.088L353.491 118.988L353.49 118.988C352.723 117.782 351.609 116.837 350.296 116.274C350.296 116.274 350.296 116.274 350.295 116.274L317.016 102.014C317.695 100.864 318.041 99.5366 317.999 98.1834C317.943 96.3775 317.2 94.6608 315.923 93.3832L297.623 75.0832L297.622 75.0828C296.29 73.7521 294.485 73.0032 292.602 73H292.6L219.4 73L219.399 73C217.517 73.0016 215.713 73.7487 214.38 75.0778L214.379 75.0787L196.08 93.3781L169.6 231.441ZM317.012 193.553L328.416 212.56L196.079 93.3787C194.8 94.6561 194.057 96.3734 194 98.1804C193.958 99.5347 194.304 100.863 194.983 102.014L161.704 116.274C161.704 116.274 161.704 116.274 161.703 116.274C160.39 116.837 159.276 117.782 158.509 118.988L158.509 118.988L142.982 143.388L142.445 144.232L143.289 144.769L153.582 151.319L154.426 151.855L154.963 151.012L169.313 128.462L206.612 112.477L239.179 140.391C240.537 141.555 242.285 142.164 244.072 142.095C245.86 142.026 247.556 141.286 248.821 140.021L256 132.84L263.179 140.021C264.444 141.286 266.14 142.026 267.928 142.095C269.715 142.164 271.463 141.555 272.821 140.391L305.388 112.477L342.687 128.462L380.904 188.516L347.871 216.827L347.038 215.994L329.188 186.247L328.674 185.39L327.816 185.904L317.355 192.181L316.497 192.695L317.012 193.553ZM243.429 125.327L211.542 97.9988L218.999 90.5423L246.327 122.429L243.429 125.327ZM256 111.89L234.837 87.2H277.163L256 111.89ZM300.461 97.9989L268.571 125.332L265.673 122.429L293.004 90.5423L300.461 97.9989Z" fill="black" stroke="black" stroke-width="2"/>
<path d="M263.1 147.2V146.2H262.1H249.9H248.9V147.2V159.4V160.4H249.9H262.1H263.1V159.4V147.2Z" fill="black" stroke="black" stroke-width="2"/>
<path d="M263.1 183.8V182.8H262.1H249.9H248.9V183.8V196V197H249.9H262.1H263.1V196V183.8Z" fill="black" stroke="black" stroke-width="2"/>
<path d="M263.1 220.4V219.4H262.1H249.9H248.9V220.4V232.6V233.6H249.9H262.1H263.1V232.6V220.4Z" fill="black" stroke="black" stroke-width="2"/>
<path d="M263.1 257V256H262.1H249.9H248.9V257V269.2V270.2H249.9H262.1H263.1V269.2V257Z" fill="black" stroke="black" stroke-width="2"/>
<path d="M263.1 293.6V292.6H262.1H249.9H248.9V293.6V305.8V306.8H249.9H262.1H263.1V305.8V293.6Z" fill="black" stroke="black" stroke-width="2"/>
<path d="M305.8 183.8V182.8H304.8H280.4H279.4V183.8V196V197H280.4H304.8H305.8V196V183.8Z" fill="black" stroke="black" stroke-width="2"/>
<path d="M369.406 323.021L370.113 323.728L370.82 323.021L395.22 298.621C395.88 297.961 396.403 297.179 396.76 296.317C397.116 295.456 397.3 294.532 397.3 293.6C397.3 292.668 397.116 291.744 396.76 290.883C396.403 290.021 395.88 289.239 395.22 288.579L370.82 264.179L370.113 263.472L369.406 264.179L360.779 272.806L360.072 273.514L360.779 274.221L380.159 293.6L360.779 312.979L360.072 313.687L360.779 314.394L369.406 323.021ZM142.594 264.179L141.886 263.472L141.179 264.179L116.779 288.579C116.779 288.579 116.779 288.579 116.779 288.579C116.12 289.239 115.597 290.021 115.24 290.883C114.883 291.744 114.7 292.668 114.7 293.6C114.7 294.532 114.883 295.456 115.24 296.317C115.597 297.179 116.12 297.961 116.779 298.621L141.179 323.021L141.886 323.728L142.594 323.021L151.22 314.394L151.928 313.687L151.22 312.979L131.841 293.6L151.22 274.221L151.928 273.514L151.22 272.806L142.594 264.179Z" fill="black" stroke="black" stroke-width="2"/>
</svg>
