<svg width="40" height="41" viewBox="0 0 40 41" fill="none" xmlns="http://www.w3.org/2000/svg">
<path fill-rule="evenodd" clip-rule="evenodd" d="M19.9957 20.3962C15.5846 20.3962 11.9974 16.7585 11.9974 12.2853C11.9974 7.81224 15.5846 4.17455 19.9957 4.17455C24.4067 4.17455 27.9939 7.81224 27.9939 12.2853C27.9939 16.7585 24.4067 20.3962 19.9957 20.3962ZM27.51 21.7607C28.9101 20.6232 30.0399 19.1812 30.8159 17.541C31.5919 15.9008 31.9942 14.1045 31.9931 12.2853C31.9945 10.2283 31.4817 8.20466 30.5024 6.40324C29.5231 4.60182 28.1094 3.08139 26.3934 1.98447C24.6774 0.887552 22.7152 0.24985 20.6902 0.130781C18.6651 0.0117123 16.6433 0.415333 14.8138 1.30379C12.9843 2.19224 11.4068 3.53659 10.2288 5.21117C9.05078 6.88575 8.31065 8.83578 8.07766 10.8792C7.84467 12.9226 8.1264 14.9924 8.89651 16.8954C9.66663 18.7984 10.9 20.4724 12.4813 21.7607C5.16489 24.5488 0 31.437 0 40.6732H3.99914C3.99914 30.5347 11.1756 24.4515 19.9957 24.4515C28.8158 24.4515 35.9922 30.5347 35.9922 40.6732H39.9914C39.9914 31.437 34.8265 24.5488 27.51 21.7607Z" fill="#676767"/>
</svg>
