<svg width="513" height="513" viewBox="0 0 513 513" fill="none" xmlns="http://www.w3.org/2000/svg">
<rect width="513" height="513" rx="115" fill="#878787"/>
<path d="M251.201 81.5C317.986 81.5 375.852 120.228 404.235 176.755C408.392 185.034 402.004 194.237 392.828 194.237C387.651 194.237 383.017 191.182 380.643 186.615C373.874 173.591 365.143 161.53 354.594 150.819C326.973 122.774 290.255 107.33 251.201 107.33C212.14 107.33 175.418 122.774 147.794 150.82C120.169 178.866 104.956 216.151 104.956 255.813C104.956 295.477 120.169 332.764 147.793 360.809C175.416 388.853 212.14 404.295 251.201 404.295C290.257 404.295 326.975 388.853 354.595 360.809C365.144 350.098 373.876 338.035 380.646 325.009C383.02 320.443 387.654 317.389 392.831 317.389C402.006 317.389 408.394 326.591 404.238 334.869C375.855 391.4 317.988 430.125 251.2 430.125C156.368 430.125 79.4999 352.078 79.4999 255.813C79.4999 159.557 156.368 81.5 251.201 81.5Z" fill="black" stroke="black"/>
<path d="M210.54 256.163L210.195 255.813L210.54 255.462L270.934 194.143C275.957 189.044 284.181 189.044 289.203 194.143C294.118 199.134 294.118 207.146 289.203 212.136L258.905 242.897H418.585C425.718 242.897 431.5 248.68 431.5 255.813C431.5 262.945 425.718 268.728 418.585 268.728H258.905L289.203 299.49C294.118 304.481 294.118 312.492 289.203 317.482C284.181 322.581 275.957 322.581 270.935 317.482L210.54 256.163Z" fill="black" stroke="black"/>
</svg>
