<svg width="513" height="513" viewBox="0 0 513 513" fill="none" xmlns="http://www.w3.org/2000/svg">
<rect width="513" height="513" rx="115" fill="#878787"/>
<path d="M319.129 180.451L319.129 180.401L319.127 180.351C316.671 117.336 273.026 85.4953 229.205 85.5C185.385 85.5047 141.744 117.355 139.297 180.352L139.295 180.402L139.295 180.452C139.322 205.705 148.768 229.944 165.606 247.845C182.449 265.751 205.319 275.854 229.209 275.884H229.215C253.105 275.854 275.975 265.751 292.818 247.845C309.656 229.944 319.102 205.704 319.129 180.451ZM229.212 102.57C248.544 102.594 267.111 110.767 280.83 125.351C294.544 139.93 302.288 159.723 302.323 180.401C300.28 232.315 264.653 257.921 229.206 257.918C193.759 257.914 158.137 232.299 156.101 180.401C156.136 159.723 163.88 139.93 177.594 125.351C191.313 110.767 209.88 102.594 229.212 102.57Z" fill="black" stroke="black" stroke-width="5"/>
<path d="M228.996 280.147L229.002 280.147C263.649 280.189 296.834 294.805 321.285 320.735C345.732 346.66 359.46 381.78 359.498 418.384V418.385C359.499 419.515 359.29 420.637 358.879 421.688C358.469 422.74 357.864 423.704 357.092 424.523C356.319 425.342 355.394 426.001 354.364 426.452C353.335 426.904 352.226 427.139 351.102 427.138M228.996 280.147L351.103 424.638M228.996 280.147C194.349 280.19 161.165 294.805 136.714 320.735C112.267 346.66 98.5392 381.78 98.5 418.384L98.5 418.386C98.4997 419.516 98.7092 420.637 99.1195 421.688C99.53 422.74 100.135 423.704 100.907 424.523C101.68 425.342 102.605 426 103.634 426.452C104.663 426.903 105.772 427.138 106.895 427.138M228.996 280.147L106.895 427.138M351.102 427.138L351.103 424.638M351.102 427.138H351.103V424.638M351.102 427.138H106.896L106.895 424.638M351.103 424.638H106.895M106.895 424.638V427.138M106.895 424.638V427.138M425.275 258.378L425.248 258.377H425.222H379.451V209.701V209.678L379.451 209.654C379.408 207.408 378.538 205.242 376.985 203.628C375.427 202.009 373.302 201.074 371.056 201.074C368.81 201.074 366.685 202.009 365.127 203.628C363.574 205.242 362.704 207.409 362.662 209.655L362.661 209.678V209.702V258.377H316.902C314.627 258.377 312.477 259.337 310.915 260.993C309.358 262.644 308.507 264.854 308.507 267.129C308.507 269.404 309.358 271.613 310.915 273.264C312.477 274.92 314.627 275.88 316.902 275.88H362.661V324.55C362.661 326.825 363.512 329.035 365.069 330.686C366.631 332.342 368.781 333.301 371.056 333.301C373.332 333.301 375.482 332.342 377.043 330.686C378.6 329.035 379.451 326.825 379.451 324.55V275.88H425.222H425.248L425.275 275.879C427.52 275.832 429.625 274.852 431.15 273.203C432.671 271.558 433.5 269.375 433.5 267.129C433.5 264.883 432.671 262.7 431.15 261.055C429.626 259.405 427.52 258.426 425.275 258.378ZM228.999 297.65C258.082 297.702 286.067 309.583 307.178 330.89C327.697 351.6 340.199 379.681 342.259 409.635H115.739C117.799 379.681 130.301 351.599 150.82 330.89C171.931 309.582 199.916 297.702 228.999 297.65Z" fill="black" stroke="black" stroke-width="5"/>
</svg>
